<svg xmlns="http://www.w3.org/2000/svg" width="1200" height="800" viewBox="0 0 1200 800"><rect width="1200" height="800" fill="#F1E5DB"/><circle cx="600" cy="400" r="290" fill="#EBDACB"/><g transform="translate(270 105) rotate(-5 154 286)"><rect x="-10" y="-10" width="326" height="592" rx="38" fill="#253347"/><rect width="306" height="572" rx="29" fill="#FAFAF7"/><rect x="108" y="10" width="90" height="20" rx="10" fill="#253347"/><text x="23" y="75" font-family="Arial,sans-serif" font-size="12" letter-spacing="1" fill="#5D6571">LABEL LENS</text><text x="23" y="123" font-family="Arial,sans-serif" font-size="25" font-weight="bold" fill="#172338">A little more clarity.</text><text x="23" y="150" font-family="Arial,sans-serif" font-size="12" fill="#68717D">Start with what matters to you.</text><rect x="23" y="185" width="260" height="158" rx="8" fill="#E9EEDF"/><path d="M114 236h78v79h-78z" fill="#FAFAF7"/><path d="M118 215h70v23h-70z" fill="#A3B08A"/><path d="M137 261h33M137 275h43M137 289h23" stroke="#A3B08A" stroke-width="4"/><text x="23" y="382" font-family="Arial,sans-serif" font-size="17" font-weight="bold" fill="#172338">Your preferences</text><rect x="23" y="402" width="260" height="45" rx="6" fill="#F0F0EB"/><text x="39" y="429" font-family="Arial,sans-serif" font-size="13" fill="#5D6571">Language                 English</text><rect x="23" y="460" width="260" height="47" rx="6" fill="#172338"/><text x="153" y="489" text-anchor="middle" font-family="Arial,sans-serif" font-size="13" fill="white">Set your goals →</text></g><g transform="translate(633 133) rotate(6 150 285)"><rect x="-10" y="-10" width="326" height="592" rx="38" fill="#253347"/><rect width="306" height="572" rx="29" fill="#FAFAF7"/><rect x="108" y="10" width="90" height="20" rx="10" fill="#253347"/><text x="23" y="77" font-family="Arial,sans-serif" font-size="12" fill="#68717D">PRODUCT DIRECTION</text><text x="23" y="120" font-family="Arial,sans-serif" font-size="25" font-weight="bold" fill="#172338">Understand the label.</text><text x="23" y="149" font-family="Arial,sans-serif" font-size="12" fill="#68717D">Information, with context.</text><rect x="23" y="186" width="260" height="64" rx="6" fill="#EEE3D6"/><text x="38" y="212" font-family="Arial,sans-serif" font-size="13" fill="#665543">Check available information</text><text x="38" y="234" font-family="Arial,sans-serif" font-size="10" fill="#665543">Incomplete data needs a clear explanation.</text><g font-family="Arial,sans-serif" font-size="13" fill="#172338"><text x="23" y="297">Nutrition context</text><text x="23" y="342">Ingredients</text><text x="23" y="387">Your preferences</text></g><g stroke="#DEDCD5"><path d="M23 311h260M23 356h260M23 401h260"/></g><rect x="23" y="444" width="260" height="65" rx="6" fill="#F0F0EB"/><text x="39" y="472" font-family="Arial,sans-serif" font-size="11" fill="#68717D">Planned screen · not implemented</text><text x="39" y="491" font-family="Arial,sans-serif" font-size="11" fill="#68717D">No live scanning or analysis claimed.</text></g><text x="48" y="755" font-family="Arial,sans-serif" font-size="13" letter-spacing="2" fill="#7B6655">PRODUCT-DIRECTION ILLUSTRATION / NOT A SCREENSHOT</text></svg>
